name C:\Users\u0101727\Documents\MyRepositories\paper-ad\predictivesimulations_2d/Results/PredSim_2D/IK_c25.mot
datacolumns 11
datarows 51
range 0.97392274 1.34005911
endheader
time	pelvis_tilt	pelvis_tx	pelvis_ty	hip_flexion_l	hip_flexion_r	knee_angle_l	knee_angle_r	ankle_angle_l	ankle_angle_r	lumbar_extension	
          0.97392274	        -10.70031350	          1.31226325	          0.95786472	          9.56025129	         11.96652227	        -34.31290736	        -20.75709988	        -22.51283362	        -13.44370437	          9.03474026	
          0.98124547	        -10.68422532	          1.32179803	          0.96180506	         10.98989444	         11.02002709	        -35.35747992	        -19.23331985	        -23.32883543	        -14.01295992	          9.02036132	
          0.98856820	        -10.68619734	          1.33116378	          0.96516214	         12.43360430	         10.10329545	        -36.25027744	        -17.68472850	        -23.88540991	        -14.28417238	          8.98588632	
          0.99589093	        -10.70505016	          1.34037098	          0.96793722	         13.88694949	          9.21756291	        -36.99203903	        -16.12203948	        -24.19998368	        -14.27994259	          8.93244554	
          1.00321365	        -10.73949284	          1.34943142	          0.97013196	         15.34523472	          8.36374552	        -37.58574482	        -14.55390950	        -24.28965436	        -14.03650836	          8.86135847	
          1.01053638	        -10.78807515	          1.35835837	          0.97174868	         16.80370586	          7.54181711	        -38.03651902	        -12.98713020	        -24.17140006	        -13.60802258	          8.77408082	
          1.01785911	        -10.84923727	          1.36716688	          0.97279008	         18.25780503	          6.75044796	        -38.35024081	        -11.42861619	        -23.86222840	        -13.04345541	          8.67230349	
          1.02518184	        -10.92123894	          1.37587266	          0.97325866	         19.70260829	          5.98879107	        -38.53178100	         -9.88762690	        -23.37918752	        -12.36995347	          8.55770186	
          1.03250456	        -11.00229047	          1.38449155	          0.97315678	         21.13293878	          5.25636865	        -38.58539831	         -8.37286381	        -22.73934961	        -11.60050288	          8.43195951	
          1.03982729	        -11.09055950	          1.39303844	          0.97248698	         22.54370039	          4.55386728	        -38.51490492	         -6.89583564	        -21.95956997	        -10.74225043	          8.29654841	
          1.04715002	        -11.18440450	          1.40152721	          0.97125202	         23.92971161	          3.88230404	        -38.32296833	         -5.46759266	        -21.05622652	         -9.79945279	          8.15288914	
          1.05447275	        -11.28220832	          1.40997276	          0.96945499	         25.28548683	          3.24158923	        -38.01429415	         -4.09628529	        -20.04518180	         -8.77424606	          8.00253813	
          1.06179547	        -11.38215406	          1.41839294	          0.96709953	         26.60459136	          2.63020329	        -37.59892302	         -2.78780934	        -18.94143487	         -7.66804042	          7.84730346	
          1.06911820	        -11.48240084	          1.42680876	          0.96419024	         27.87868237	          2.04547554	        -37.09288288	         -1.54611611	        -17.75794201	         -6.48201461	          7.68940799	
          1.07644093	        -11.58110967	          1.43524354	          0.96073328	         29.09717988	          1.48486881	        -36.51920237	         -0.37608583	        -16.50401213	         -5.21784537	          7.53135773	
          1.08376365	        -11.67643742	          1.44372071	          0.95673649	         30.24914040	          0.94656763	        -35.90655340	          0.71462443	        -15.18355650	         -3.87806984	          7.37564541	
          1.09108638	        -11.76657958	          1.45226152	          0.95220835	         31.32674985	          0.42806457	        -35.28623061	          1.71815105	        -13.79371896	         -2.46576955	          7.22449547	
          1.09840911	        -11.84981972	          1.46088412	          0.94715737	         32.32587284	         -0.07379346	        -34.69136140	          2.62771651	        -12.32429208	         -0.98443618	          7.07977616	
          1.10573184	        -11.92460809	          1.46960466	          0.94159281	         33.24343070	         -0.56206393	        -34.15883597	          3.43857930	        -10.75822249	          0.56210628	          6.94316770	
          1.11305456	        -11.98964821	          1.47843833	          0.93552579	         34.07506674	         -1.03948329	        -33.73032745	          4.14813234	         -9.07377883	          2.16961499	          6.81633159	
          1.12037729	        -12.04390773	          1.48739944	          0.92897107	         34.81366330	         -1.50782255	        -33.45184742	          4.75090938	         -7.24921542	          3.83246344	          6.70090139	
          1.12770002	        -12.08662630	          1.49650268	          0.92195080	         35.44642044	         -1.96727082	        -33.37530720	          5.23044565	         -5.27079403	          5.54175954	          6.59858841	
          1.13502275	        -12.11744786	          1.50576704	          0.91450259	         35.94705472	         -2.41665559	        -33.56441492	          5.55181547	         -3.13113492	          7.29805506	          6.51176370	
          1.14234547	        -12.13733770	          1.51522582	          0.90669821	         36.26066336	         -2.86096239	        -34.09590327	          5.66930505	         -0.85593328	          9.08760979	          6.44567164	
          1.14966820	        -12.14787938	          1.52494565	          0.89870866	         36.29582372	         -3.31941266	        -35.08460403	          5.37779934	          1.44441430	         10.86067052	          6.41014675	
          1.15699093	        -12.15565456	          1.53480170	          0.89095904	         36.12574422	         -3.78635240	        -36.28010852	          4.78387275	          3.75318191	         12.63377874	          6.39626027	
          1.16431366	        -12.16556875	          1.54469088	          0.88416011	         35.87757063	         -4.24641297	        -37.35790120	          4.16866671	          6.12352124	         14.42936623	          6.39533322	
          1.17163638	        -12.17946914	          1.55473623	          0.87884534	         35.57219748	         -4.69177921	        -38.32699812	          3.52268274	          8.36036436	         16.07420628	          6.42391243	
          1.17895911	        -12.19264561	          1.56501158	          0.87505563	         35.20494876	         -5.10162417	        -39.16844720	          2.81500067	         10.27366387	         17.37524514	          6.48547827	
          1.18628184	        -12.19685531	          1.57549280	          0.87250972	         34.74945813	         -5.44664274	        -39.84859038	          1.98744907	         11.85295498	         18.27423109	          6.56839160	
          1.19360457	        -12.19242437	          1.58609727	          0.87087228	         34.19771165	         -5.69675915	        -40.34039522	          1.00332308	         13.09108291	         18.76583611	          6.66465133	
          1.20092729	        -12.18163161	          1.59675565	          0.86994528	         33.53918944	         -5.84896790	        -40.61198052	         -0.12637558	         13.98760444	         18.87873911	          6.77007086	
          1.20825002	        -12.16593335	          1.60742970	          0.86968508	         32.77606861	         -5.91296128	        -40.66187905	         -1.38027960	         14.56290897	         18.64601397	          6.88301726	
          1.21557275	        -12.14475974	          1.61812219	          0.87014754	         31.91190005	         -5.89290604	        -40.49651579	         -2.75267381	         14.82754405	         18.08097096	          7.00421070	
          1.22289548	        -12.11657097	          1.62885379	          0.87139613	         30.94727671	         -5.78882641	        -40.11727694	         -4.24084217	         14.76996696	         17.17573061	          7.13520572	
          1.23021820	        -12.07963686	          1.63963697	          0.87346598	         29.88786016	         -5.59546767	        -39.53503259	         -5.84719228	         14.38666497	         15.91166855	          7.27619301	
          1.23754093	        -12.03215372	          1.65047992	          0.87636671	         28.74173021	         -5.30426410	        -38.76558444	         -7.57666635	         13.67918066	         14.26643086	          7.42666057	
          1.24486366	        -11.97226324	          1.66138737	          0.88008559	         27.51883851	         -4.90447175	        -37.82781189	         -9.43571990	         12.64894142	         12.21581429	          7.58547815	
          1.25218639	        -11.89830284	          1.67235867	          0.88458911	         26.23091576	         -4.38290407	        -36.74200030	        -11.42946051	         11.29581894	          9.73227299	          7.75083681	
          1.25950911	        -11.80902883	          1.68338680	          0.88981930	         24.89124132	         -3.72680598	        -35.53057671	        -13.57064595	          9.62541701	          6.79951049	          7.92019692	
          1.26683184	        -11.70430521	          1.69444289	          0.89568695	         23.51995619	         -2.91712076	        -34.22518582	        -15.84346562	          7.64585451	          3.37536403	          8.08881342	
          1.27415457	        -11.58552798	          1.70549633	          0.90207517	         22.14174802	         -1.95263099	        -32.86336350	        -18.25856663	          5.36868631	         -0.56752354	          8.25239079	
          1.28147729	        -11.45722551	          1.71650428	          0.90883362	         20.78885389	         -0.86907850	        -31.48745910	        -20.64588559	          2.82004684	         -4.53905008	          8.40739132	
          1.28880002	        -11.32593148	          1.72740853	          0.91576597	         19.49174822	          0.29009781	        -30.14530167	        -22.85120566	          0.09361255	         -8.07416843	          8.54982161	
          1.29612275	        -11.19649851	          1.73818878	          0.92271519	         18.24919217	          1.50335783	        -28.83050414	        -24.92840488	         -2.72973080	        -11.19824810	          8.67848651	
          1.30344548	        -11.07211294	          1.74884098	          0.92959106	         17.05366789	          2.76461458	        -27.57617746	        -26.87429190	         -5.56595185	        -13.93363551	          8.79185327	
          1.31076820	        -10.95955259	          1.75929368	          0.93627411	         15.96522168	          4.06550693	        -26.34147850	        -28.66054712	         -7.98445669	        -16.30575023	          8.88251738	
          1.31809093	        -10.86517200	          1.76953873	          0.94254002	         14.95106217	          5.39885922	        -25.03936765	        -30.28655814	         -9.84160441	        -18.33428224	          8.95074706	
          1.32541366	        -10.79032142	          1.77961739	          0.94823198	         13.93667138	          6.76081476	        -23.67485118	        -31.77389875	        -11.36162440	        -20.03304056	          9.00012862	
          1.33273639	        -10.73545387	          1.78951245	          0.95334040	         12.93999962	          8.14916936	        -22.24244217	        -33.11749441	        -12.56190877	        -21.42022935	          9.02816987	
          1.34005911	        -10.70031350	          1.79922462	          0.95786472	         11.96652227	          9.56025129	        -20.75709988	        -34.31290736	        -13.44370437	        -22.51283362	          9.03474026	
